<svg xmlns="http://www.w3.org/2000/svg" width="1024" height="1024" viewBox="0 0 1024 1024" version="1.1"><path d="M 511.336 161 C 511.336 165.125, 511.513 166.813, 511.728 164.750 C 511.944 162.688, 511.944 159.313, 511.728 157.250 C 511.513 155.188, 511.336 156.875, 511.336 161 M 58.422 556 C 58.422 567.275, 58.568 571.888, 58.746 566.250 C 58.924 560.612, 58.924 551.388, 58.746 545.750 C 58.568 540.112, 58.422 544.725, 58.422 556 M 725.250 564.739 C 728.413 564.937, 733.587 564.937, 736.750 564.739 C 739.913 564.541, 737.325 564.378, 731 564.378 C 724.675 564.378, 722.087 564.541, 725.250 564.739 M 620.343 600.500 C 620.346 604.900, 620.522 606.576, 620.733 604.224 C 620.945 601.872, 620.942 598.272, 620.727 596.224 C 620.512 594.176, 620.339 596.100, 620.343 600.500 M 926.750 619.723 C 928.538 619.945, 931.462 619.945, 933.250 619.723 C 935.038 619.502, 933.575 619.320, 930 619.320 C 926.425 619.320, 924.962 619.502, 926.750 619.723" stroke="none" fill="#1e3446" fill-rule="evenodd"/><path d="M 481.840 87.567 C 393.321 95.617, 307.506 132.231, 241.606 190.065 C 165.611 256.759, 113.853 352.584, 102.559 447.500 C 101.708 454.650, 100.897 462.300, 100.756 464.500 L 100.500 468.500 84 469 C 65.824 469.551, 64.482 469.954, 60.693 476 C 58.500 479.500, 58.500 479.500, 58.757 548.314 C 59.030 621.269, 58.943 619.924, 63.684 624.214 C 68.318 628.407, 72.055 629, 93.862 629 L 114.787 629 113.957 632.750 C 113.500 634.813, 112.727 639.522, 112.239 643.215 L 111.351 649.930 115.426 650.520 C 117.666 650.844, 143.844 650.972, 173.597 650.805 C 230.898 650.482, 231 650.473, 231 645.878 C 231 643.693, 236.396 643.897, 172.500 643.660 L 129.500 643.500 127.810 636.524 C 126.880 632.687, 126.205 629.469, 126.310 629.374 C 126.414 629.279, 142.250 628.891, 161.500 628.512 L 196.500 627.822 200.058 634.661 L 203.617 641.500 209.808 641.581 C 213.214 641.625, 216 641.225, 216 640.691 C 216 640.158, 214.650 637.527, 213 634.846 C 211.350 632.164, 210 629.752, 210 629.485 C 210 629.218, 267.487 629.021, 337.750 629.047 L 465.500 629.094 469 634.114 C 474.004 641.292, 484.184 649.478, 491.938 652.557 C 497.079 654.599, 500.889 655.282, 509.531 655.712 C 522.924 656.377, 528.754 655.266, 539.500 650.002 C 547.637 646.015, 552.338 642.201, 559.500 633.775 L 563.500 629.068 690.500 628.994 C 760.350 628.953, 817.868 628.938, 818.318 628.960 C 818.768 628.982, 818.285 630.237, 817.244 631.750 C 816.203 633.263, 814.336 636.188, 813.094 638.250 L 810.837 642 817.206 642 L 823.576 642 827.849 635.500 C 830.200 631.925, 832.883 628.899, 833.811 628.777 C 834.740 628.654, 850.500 628.541, 868.833 628.527 L 902.167 628.500 901.585 632.167 C 901.265 634.183, 900.437 637.558, 899.746 639.667 L 898.489 643.500 847.150 643.594 C 804.197 643.672, 795.666 643.917, 794.921 645.094 C 793.807 646.854, 793.811 647.153, 794.979 649 C 795.801 650.302, 803.918 650.533, 856.405 650.748 C 890.376 650.888, 917.122 650.612, 917.427 650.118 C 917.725 649.635, 917.157 644.686, 916.163 639.120 L 914.356 629 938.362 629 C 960.782 629, 962.658 628.860, 966.750 626.879 C 969.390 625.601, 972.199 623.145, 973.816 620.702 L 976.500 616.646 976.500 548.073 C 976.500 472.235, 976.799 475.842, 970.111 471.079 C 967.408 469.155, 965.821 469, 948.766 469 L 930.340 469 929.137 455.402 C 924.001 397.393, 901.152 334.757, 865.157 280.011 C 841.756 244.420, 809.770 207.876, 781.500 184.432 C 722.469 135.478, 652.214 102.918, 579.907 91.005 C 550.343 86.134, 512.276 84.799, 481.840 87.567 M 478.500 152.510 C 383.584 163.526, 298.289 210.915, 237.330 286.500 C 202.995 329.073, 177.432 382.225, 166.940 432.860 C 163.925 447.407, 162.392 445.998, 181.250 446.015 C 190.188 446.024, 198.107 446.415, 198.848 446.885 C 199.590 447.355, 200.034 448.586, 199.836 449.620 C 199.501 451.363, 198.187 451.520, 181.858 451.773 L 164.241 452.045 163.620 455.148 C 163.279 456.854, 163 460.669, 163 463.625 L 163 469 194.750 469.015 C 229.481 469.031, 229.788 469.077, 233.720 474.912 C 236 478.296, 236 478.296, 236 529.148 L 236 580 295.750 580.022 C 351.381 580.042, 355.776 580.169, 359.509 581.865 C 364.418 584.095, 369.370 589.561, 371.026 594.577 C 372.755 599.819, 371.682 611.160, 369.055 615.412 C 367.925 617.240, 367 619.020, 367 619.368 C 367 619.716, 375.325 620, 385.500 620 L 404 620 404 607.059 C 404 599.434, 404.414 593.862, 405.009 593.494 C 405.564 593.152, 406.914 593.155, 408.009 593.503 C 409.862 594.091, 410 595.032, 410 607.067 L 410 620 425.921 620 L 441.841 620 442.529 616.750 C 442.907 614.962, 444.109 612.526, 445.201 611.336 C 447.185 609.174, 447.185 609.169, 444.952 606.149 C 442.287 602.544, 442.730 596.825, 445.923 593.633 C 447.905 591.650, 447.904 591.641, 445.455 589.371 C 441.955 586.127, 442.031 579.878, 445.614 576.295 C 448.228 573.681, 448.228 573.681, 446.134 572.090 C 442.155 569.069, 442.077 561.441, 445.981 557.250 C 448.039 555.042, 448.039 555.039, 446.046 553.046 C 443.408 550.408, 442.609 546.868, 443.381 541.236 C 444.019 536.582, 447.141 532, 449.674 532 C 451.359 532, 451.531 511.283, 449.920 502.434 C 447.419 488.697, 438.664 476.946, 422.140 465.149 C 411.202 457.340, 402.277 448.216, 394.850 437.250 C 392.149 433.263, 389.564 430, 389.106 430 C 388.647 430, 380.660 434.162, 371.357 439.250 C 362.053 444.337, 352.766 449.390, 350.720 450.477 C 348.674 451.565, 347 452.768, 347 453.151 C 347 453.533, 345.835 455.231, 344.411 456.923 C 339.261 463.043, 329.959 459.817, 330.032 451.936 C 330.093 445.272, 335.465 442.104, 342.228 444.744 C 345.950 446.197, 345.972 446.191, 356.728 440.270 C 362.653 437.009, 371.868 431.954, 377.208 429.037 L 386.915 423.732 385.360 420.116 C 382.236 412.854, 379.820 405.321, 378.104 397.500 L 376.349 389.500 357.424 388.944 C 347.016 388.638, 338.387 388.301, 338.250 388.194 C 337.313 387.467, 338.289 384.103, 339.582 383.607 C 340.452 383.273, 348.717 383, 357.949 383 L 374.734 383 375.294 364.750 C 375.701 351.454, 376.373 344.529, 377.766 339.239 C 379.880 331.215, 380.162 331.865, 372.740 327.624 C 368.387 325.136, 368.078 324.717, 369.126 322.702 C 369.756 321.491, 370.390 320.357, 370.536 320.183 C 370.682 320.008, 373.141 321.051, 376 322.500 C 378.859 323.949, 381.334 324.992, 381.500 324.817 C 381.665 324.643, 383.187 320.900, 384.881 316.500 C 386.576 312.100, 390.003 304.923, 392.498 300.550 C 394.992 296.178, 396.913 292.334, 396.767 292.008 C 396.620 291.683, 392.225 287.443, 387 282.586 C 381.775 277.729, 377.194 273.023, 376.820 272.128 C 376.446 271.232, 376.109 267.744, 376.070 264.375 C 376.003 258.518, 375.880 258.226, 373.250 257.690 C 368.547 256.733, 360.963 250.917, 357.478 245.594 C 353.195 239.053, 351.615 232.957, 352.421 226.083 C 355.234 202.110, 386.190 191.257, 403.211 208.277 C 410.142 215.209, 413.300 225.780, 411.076 234.611 L 409.893 239.310 418.831 248.155 C 423.747 253.020, 427.977 257, 428.231 257 C 428.486 257, 432.445 254.489, 437.030 251.421 C 448.354 243.841, 456.398 239.929, 470.592 235.098 C 482.264 231.126, 498.110 228.018, 506.750 228.006 L 511 228 511 216.500 C 511 207.266, 510.722 205, 509.589 205 C 507.441 205, 503.158 199.358, 502.453 195.601 C 501.669 191.423, 504.770 184.882, 508.295 183.275 C 510.678 182.189, 510.767 181.765, 511.312 168.828 C 512.156 148.828, 513.465 150.980, 500.536 151.117 C 494.466 151.181, 484.550 151.808, 478.500 152.510 M 517.986 164.250 C 517.979 171.537, 517.701 178.512, 517.370 179.750 C 516.936 181.370, 517.198 182, 518.306 182 C 520.783 182, 525.870 187.792, 526.543 191.377 C 527.383 195.852, 524.943 201.330, 521.099 203.601 C 518 205.431, 518 205.431, 518 216.716 L 518 228 522.750 228.006 C 543.657 228.032, 572.578 237.870, 592.310 251.668 L 600.120 257.129 607.810 249.611 L 615.500 242.094 615.545 231.797 C 615.585 222.686, 615.893 220.917, 618.215 216.442 C 624.096 205.106, 633.974 199.461, 646.567 200.239 C 656.203 200.835, 662.877 204.485, 668.648 212.315 C 673.360 218.708, 674.544 222.644, 674.314 231.142 C 674.136 237.681, 670.572 246.137, 666.279 250.201 C 663.210 253.107, 654.471 258, 652.351 258 C 651.335 258, 651 259.886, 651 265.617 C 651 274.187, 651.833 272.953, 637.113 286.194 L 630.784 291.887 632.766 294.694 C 635.642 298.764, 641.278 310.381, 644.438 318.750 C 645.943 322.738, 647.370 326, 647.609 326 C 647.848 326, 649.721 324.919, 651.771 323.597 C 657.684 319.787, 659.483 319.570, 660.819 322.502 C 661.934 324.948, 661.755 325.139, 655.437 328.255 C 649.466 331.200, 648.958 331.693, 649.545 333.989 C 652.490 345.513, 653.228 351.367, 653.579 366 L 653.976 382.500 675.488 382.770 C 698.066 383.052, 698.068 383.053, 696.393 387.418 C 695.865 388.794, 692.934 389, 673.893 389 C 652 389, 652 389, 652 391.270 C 652 394.722, 648.231 407.583, 644.816 415.788 C 641.875 422.852, 641.834 423.159, 643.634 424.495 C 644.660 425.257, 653.755 430.489, 663.846 436.121 C 679.573 444.900, 682.461 446.193, 684.082 445.181 C 689.644 441.708, 697 445.354, 697 451.584 C 697 461.084, 684.342 463.291, 680.955 454.381 C 680.446 453.043, 677.855 450.950, 674.789 449.401 C 671.880 447.931, 662.926 442.964, 654.891 438.364 C 646.857 433.764, 639.788 430, 639.184 430 C 638.579 430, 636.860 432.137, 635.364 434.750 C 629.349 445.254, 617.954 457.003, 602.790 468.336 C 590.237 477.718, 581.752 489.437, 579.061 501.112 C 578.504 503.525, 578.038 511.390, 578.024 518.589 C 578 531.662, 578.003 531.680, 580.552 532.842 C 586.317 535.468, 587.884 549.172, 582.883 553.219 C 581.240 554.549, 580.895 555.308, 581.771 555.664 C 583.701 556.449, 586 561.521, 586 564.996 C 586 566.972, 585.087 569.004, 583.476 570.615 C 580.951 573.140, 580.951 573.140, 583.104 574.883 C 586.324 577.491, 586.906 585.726, 584.081 588.715 C 581.987 590.930, 581.987 590.930, 583.990 594.215 C 586.536 598.391, 586.539 602.045, 584 605.273 C 581.495 608.457, 581.491 608.400, 584.500 611.409 C 586.072 612.981, 587 615.039, 587 616.955 L 587 620 603.977 620 L 620.955 620 621.227 601.750 C 621.497 583.679, 621.522 583.497, 623.750 583.180 C 626 582.861, 626 582.861, 626 601.430 L 626 620 648 620 C 660.100 620, 670 619.743, 670 619.428 C 670 619.114, 668.877 616.940, 667.504 614.597 C 662.617 606.258, 662.971 595.216, 668.384 587.173 L 671.649 582.321 667.452 581.198 C 665.144 580.581, 661.319 578.596, 658.953 576.788 C 644.407 565.671, 648.185 542.564, 665.615 536.043 C 670.354 534.270, 673.401 534, 688.681 534 L 706.288 534 701.894 530.712 C 695.371 525.830, 676.055 513.467, 671.737 511.410 C 668.025 509.641, 659.480 499.105, 647.634 481.687 C 641.997 473.399, 641.741 471.692, 646.250 472.471 C 653.930 473.798, 677.704 476.995, 679.910 476.998 C 681.254 476.999, 688.552 481.056, 696.410 486.170 C 704.159 491.214, 713.425 497.222, 717 499.522 C 731.472 508.830, 758.857 526.563, 764.321 530.164 C 769.764 533.751, 770.626 534, 777.620 534 C 785.683 534, 789.800 535.449, 792.439 539.217 C 794.552 542.233, 794.548 542.245, 790 547.500 C 786.335 551.734, 786 552.603, 786 557.858 C 786 563.232, 786.252 563.840, 790 567.500 C 792.200 569.648, 794 572.215, 794 573.203 C 794 574.437, 794.758 575, 796.418 575 C 802.353 575, 802 578.024, 802 527.209 C 802 482.340, 802.075 480.477, 804.044 476.409 C 807.518 469.232, 808.674 469, 840.901 469 L 869 469 869 465.904 C 869 464.201, 868.295 460.384, 867.434 457.422 L 865.869 452.036 842.184 451.768 C 818.914 451.505, 818.495 451.463, 818.198 449.380 C 817.757 446.296, 819.781 446.029, 843.750 446.014 L 865 446 865 443.250 C 864.999 430.740, 853.567 392.529, 842.039 366.506 C 802.366 276.950, 718.568 201.128, 622.811 168.145 C 593.145 157.927, 554.798 151, 527.894 151 L 518 151 517.986 164.250 M 462.635 184.073 C 457.871 187.820, 460.156 195.046, 466.079 194.968 C 469.629 194.922, 472.002 192.680, 471.985 189.390 C 471.966 185.941, 471.226 184.682, 468.316 183.150 C 465.518 181.677, 465.723 181.644, 462.635 184.073 M 558.635 184.073 C 553.833 187.850, 556.148 195, 562.174 195 C 565.279 195, 568.005 192.148, 567.985 188.921 C 567.966 185.940, 567.136 184.634, 564.316 183.150 C 561.518 181.677, 561.723 181.644, 558.635 184.073 M 434.455 197.455 C 431.617 200.292, 431.363 202.645, 433.557 205.777 C 435.519 208.579, 440.967 208.799, 443.345 206.171 C 445.772 203.490, 445.474 198.446, 442.777 196.557 C 439.645 194.363, 437.292 194.617, 434.455 197.455 M 585.635 197.073 C 580.783 200.889, 583.298 208, 589.500 208 C 593.246 208, 596 205.183, 596 201.350 C 596 199.126, 591.777 195, 589.500 195 C 588.823 195, 587.084 195.933, 585.635 197.073 M 376.994 207.886 C 369.041 210.458, 364.324 215.064, 361.445 223.069 C 357.939 232.818, 362.866 244.486, 372.500 249.249 C 386.943 256.391, 404 245.696, 404 229.500 C 404 221.614, 398.872 213.121, 391.906 209.470 C 388.579 207.726, 380.230 206.839, 376.994 207.886 M 638.420 208.373 C 632.241 210.365, 628.216 213.858, 625.351 219.714 C 614.822 241.235, 641.485 261.649, 659.458 245.828 C 667.761 238.520, 669.086 226.830, 662.693 217.291 C 657.319 209.272, 647.181 205.547, 638.420 208.373 M 493.500 241.938 C 474.508 245.307, 453.763 254.108, 438.860 265.120 C 432.244 270.008, 414.035 288.197, 412.057 291.893 C 411.192 293.511, 411.561 294.290, 414.259 296.541 C 416.041 298.028, 419.642 301.237, 422.259 303.671 C 426.303 307.432, 426.861 308.391, 425.974 310.049 C 424.344 313.095, 422.620 312.443, 415.308 306.017 C 411.563 302.727, 408.035 300.027, 407.466 300.017 C 406.084 299.994, 403.380 304.620, 398.383 315.551 C 392.206 329.067, 392.127 329.990, 396.900 332.939 C 401.600 335.843, 402.130 338.997, 397.825 338.453 C 396.304 338.260, 394.174 337.628, 393.091 337.049 C 391.897 336.410, 390.894 336.362, 390.545 336.928 C 390.228 337.441, 389.256 342.504, 388.385 348.180 C 386.153 362.733, 386.985 383.135, 390.339 396.133 C 397.138 422.475, 408.603 439.301, 431.384 456.371 C 448.328 469.067, 454.398 476.430, 459.832 490.880 C 462.037 496.744, 462.373 499.469, 462.774 514.750 L 463.227 532 472.113 532 L 481 532 480.994 507.250 C 480.986 474.157, 478.868 460.684, 471.690 448.073 C 468.565 442.583, 466.914 440.992, 461.500 438.261 C 458.750 436.874, 454.925 434.514, 453 433.018 C 450.829 431.330, 447.656 430.053, 444.644 429.653 C 434.544 428.314, 425.112 420.788, 420.163 410.120 C 416.534 402.296, 416.557 391.315, 420.222 381.910 C 422.691 375.573, 422.734 375.112, 421.331 369.910 C 418.127 358.030, 421.742 344.426, 430.484 335.472 L 435.789 330.038 435.793 321.769 C 435.796 312.737, 436.931 309.118, 441.908 302.272 C 444.854 298.219, 453.049 293, 456.467 293 C 457.310 293, 458 292.599, 458 292.108 C 458 291.618, 460.012 288.979, 462.471 286.244 C 468.299 279.762, 475.179 276.719, 484.023 276.711 C 495.934 276.701, 504.148 282.335, 510.217 294.676 C 512.023 298.348, 513.950 301.489, 514.500 301.658 C 515.050 301.826, 516.850 299.186, 518.500 295.790 C 524.607 283.220, 531.697 277.976, 543.615 277.211 C 554.873 276.488, 564.806 281.096, 569.956 289.429 C 571.462 291.865, 573.011 292.967, 575.618 293.456 C 578.116 293.925, 580.973 295.857, 585.020 299.815 C 592.042 306.682, 594.590 313.558, 593.710 323.265 L 593.174 329.174 598.972 334.972 C 608.313 344.313, 611.728 356.483, 608.556 369.129 C 606.934 375.599, 606.947 375.900, 609.128 382.126 C 610.726 386.689, 611.363 390.813, 611.372 396.639 C 611.383 403.805, 610.998 405.562, 608.150 411.347 C 603.230 421.342, 591.663 429.965, 583.144 429.990 C 581.013 429.996, 578.678 430.935, 576.745 432.561 C 575.071 433.969, 571.182 436.395, 568.101 437.951 C 560.989 441.545, 560.031 442.655, 555.013 453.115 C 548.994 465.663, 548.076 472.451, 548.035 504.750 L 548 532 556.887 532 L 565.773 532 566.226 514.750 C 566.718 496.005, 567.995 490.548, 574.500 479.380 C 578.193 473.041, 588.783 462.513, 597 457.011 C 605.685 451.195, 618.504 438.191, 624.428 429.185 C 639.589 406.139, 645.419 373.558, 639.511 344.906 C 636.297 329.321, 624.963 301.488, 621.339 300.280 C 620.713 300.071, 616.951 302.623, 612.978 305.950 C 605.268 312.408, 604.004 312.915, 601.907 310.387 C 600.749 308.992, 601.035 308.365, 604.034 305.733 C 611.151 299.487, 617 293.902, 617 293.352 C 617 291.930, 606.246 279.486, 600.342 274.076 C 579.239 254.739, 553.318 243.143, 525.250 240.484 L 518 239.797 518 252.699 C 518 265.927, 517.445 268, 513.907 268 C 511.373 268, 511 266, 511 252.418 L 511 240 507.250 240.082 C 505.188 240.127, 499 240.962, 493.500 241.938 M 305.524 244.358 C 303.298 245.987, 303.007 251.747, 305.083 253.097 C 309.968 256.272, 315 254.193, 315 249 C 315 244.034, 309.591 241.385, 305.524 244.358 M 714.750 244.080 C 713.644 244.725, 713 246.311, 713 248.395 C 713 254.133, 718.794 257.095, 722.345 253.171 C 727.131 247.883, 720.942 240.474, 714.750 244.080 M 403.312 249.921 L 400.156 253.680 405.221 258.745 C 408.661 262.184, 410.087 264.330, 409.666 265.428 C 408.274 269.054, 405.887 268.325, 399.967 262.467 L 394.096 256.658 388.503 257.999 L 382.910 259.341 383.205 264.810 C 383.500 270.280, 383.500 270.280, 392.217 278.256 L 400.935 286.231 403.717 282.865 C 405.248 281.014, 410.205 275.372, 414.733 270.327 L 422.966 261.155 415.900 254.327 C 412.014 250.572, 408.301 247.199, 407.651 246.831 C 406.966 246.444, 405.136 247.748, 403.312 249.921 M 613.214 253.285 C 609.246 257.279, 606 260.819, 606 261.151 C 606 261.484, 609.779 265.683, 614.399 270.482 C 619.018 275.281, 623.622 280.739, 624.629 282.611 C 625.637 284.482, 626.784 285.897, 627.178 285.756 C 627.571 285.615, 631.517 282.207, 635.947 278.182 C 644 270.864, 644 270.864, 644 265.139 L 644 259.413 638.492 258.258 L 632.984 257.102 628.355 262.051 C 623.394 267.356, 622.517 267.707, 619.649 265.534 C 617.900 264.209, 618.052 263.859, 622.399 259.212 C 624.929 256.506, 627 253.865, 627 253.342 C 627 252.820, 625.521 250.959, 623.714 249.207 L 620.428 246.022 613.214 253.285 M 343.051 257.949 C 339.227 261.773, 341.568 268, 346.829 268 C 350.034 268, 353.250 264.391, 352.444 261.699 C 350.967 256.768, 346.154 254.846, 343.051 257.949 M 310.655 258.829 C 309.745 259.835, 309 262.105, 309 263.875 C 309 266.403, 309.642 267.458, 311.994 268.797 C 313.640 269.733, 314.990 271.001, 314.994 271.614 C 315.003 273.227, 324.603 282.739, 326.984 283.495 C 328.649 284.023, 329 285, 329 289.098 C 329 292.172, 329.974 296.375, 331.560 300.144 C 334.121 306.227, 334.121 306.227, 332.060 307.670 C 327.484 310.876, 330.943 319.307, 336.406 318.263 C 338.786 317.808, 342.340 314.481, 343.199 311.902 C 343.382 311.354, 347.885 313.197, 353.206 315.998 C 362.706 320.999, 362.901 321.053, 364.010 318.982 C 365.516 316.167, 364.618 315.224, 355.879 310.436 C 351.927 308.271, 347.778 305.262, 346.659 303.750 C 345.263 301.864, 343.724 301, 341.761 301 C 339.439 301, 338.624 300.344, 337.449 297.532 C 335.446 292.737, 335.634 289.328, 338.127 285.294 C 339.873 282.469, 340.056 281.419, 339.148 279.426 C 338.216 277.379, 337.337 277, 333.524 277 C 329.716 277, 328.360 276.417, 324.896 273.287 C 321.007 269.773, 320.818 269.344, 321.376 265.270 C 321.852 261.802, 321.581 260.581, 319.983 258.983 C 317.499 256.499, 312.833 256.422, 310.655 258.829 M 676.557 259.223 C 674.499 262.160, 674.593 263.593, 677 266 C 682.233 271.233, 690.072 264.631, 685.608 258.750 C 683.677 256.207, 678.479 256.478, 676.557 259.223 M 708.520 258.978 C 707.153 260.488, 706.865 261.955, 707.299 265.191 C 707.835 269.190, 707.624 269.656, 703.501 273.550 C 699.887 276.964, 698.606 277.596, 696.059 277.222 C 689.920 276.321, 688.170 281.131, 692.500 287 C 697.281 293.480, 694.413 302, 687.450 302 C 685.002 302, 683.623 302.646, 682.540 304.298 C 681.712 305.562, 677.427 308.519, 673.017 310.868 C 668.608 313.218, 665 315.588, 665 316.136 C 665 316.683, 665.479 318.027, 666.065 319.121 C 667.088 321.033, 667.469 320.928, 675.785 316.431 C 683.606 312.203, 684.540 311.917, 685.470 313.462 C 687.982 317.635, 688.900 318.333, 691.876 318.333 C 693.819 318.333, 695.594 317.595, 696.486 316.417 C 698.240 314.098, 698.429 309.829, 696.847 308.247 C 695.976 307.376, 696.528 305.997, 699.097 302.616 C 702.721 297.847, 704.332 297.035, 710.211 297.014 C 712.323 297.006, 714.476 296.333, 715.211 295.452 C 717.300 292.943, 718.309 292.089, 722 289.701 C 728.915 285.227, 726.419 277.948, 718.480 279.438 C 715.661 279.967, 714.974 280.683, 713.836 284.279 C 712.622 288.115, 712.089 288.601, 708 289.603 C 702.208 291.022, 701 290.502, 701 286.586 C 701 283.925, 701.766 282.845, 705.537 280.187 C 708.032 278.428, 710.999 275.421, 712.130 273.505 C 713.261 271.588, 715.381 269.450, 716.843 268.753 C 720.075 267.211, 720.855 262.954, 718.550 259.435 C 716.515 256.330, 711.138 256.085, 708.520 258.978 M 289.750 276.080 C 287.391 277.454, 287.440 283.183, 289.829 285.345 C 292.049 287.355, 295.955 287.485, 298.486 285.634 C 300.145 284.421, 300.625 284.589, 302.766 287.134 C 305.367 290.225, 308.540 290.788, 311.434 288.672 C 313.523 287.144, 313.832 282.707, 312.003 280.503 C 310.490 278.681, 304.886 278.521, 303.133 280.250 C 302.117 281.252, 301.588 281.103, 300.467 279.500 C 299.698 278.400, 298.585 276.938, 297.995 276.250 C 296.709 274.753, 292.188 274.660, 289.750 276.080 M 729.128 276.345 C 728.514 277.085, 727.739 279.053, 727.406 280.719 C 726.920 283.152, 727.257 284.067, 729.123 285.373 C 734.040 288.818, 740 286.281, 740 280.743 C 740 279.313, 739.293 277.436, 738.429 276.571 C 736.505 274.648, 730.655 274.506, 729.128 276.345 M 351.655 278.829 C 348.148 282.704, 350.975 289, 356.223 289 C 358.609 289, 362 285.479, 362 283 C 362 280.286, 358.525 277, 355.655 277 C 354.365 277, 352.565 277.823, 351.655 278.829 M 669.200 278.200 C 667.205 280.195, 667.700 286.769, 669.934 287.965 C 674.405 290.357, 679 287.553, 679 282.432 C 679 278.128, 672.206 275.194, 669.200 278.200 M 476.309 288.947 C 470.648 291.517, 467.586 297.336, 468.251 304.260 C 468.538 307.251, 469.460 309.888, 470.611 311.015 C 472.449 312.813, 472.667 312.808, 478.634 310.830 C 484.487 308.890, 484.932 308.874, 488.340 310.491 C 490.738 311.629, 492.583 313.573, 493.956 316.409 C 496.664 322.003, 496.534 324.435, 493.393 326.905 C 490.093 329.501, 487.631 328.388, 485.864 323.499 C 484.466 319.634, 483.120 319.284, 476.606 321.092 C 468.950 323.218, 462.281 317.700, 459.867 307.245 C 459.201 304.357, 458.094 302, 457.405 302 C 455.273 302, 450.009 307.061, 447.956 311.086 C 445.768 315.375, 445.335 323.840, 447.125 327.316 C 449.368 331.670, 452.515 334.093, 457.954 335.652 C 464.440 337.511, 466 338.567, 466 341.099 C 466 343.836, 461.347 346.439, 456.783 346.257 C 452.823 346.099, 444 341.751, 444 339.958 C 444 338.016, 440.297 339.082, 437.777 341.750 C 427.339 352.801, 427.619 369.410, 438.431 380.464 C 444.413 386.580, 449.562 388.329, 458.759 387.367 C 466.354 386.574, 469.087 388.248, 473.069 396.137 C 476.316 402.570, 478.632 404.511, 484.293 405.545 C 492.345 407.017, 503.077 399.363, 505.826 390.186 C 507.286 385.313, 508.528 374, 507.603 374 C 504.545 374, 494.005 381.299, 493.994 383.424 C 493.976 386.884, 491.705 391.959, 489.920 392.525 C 486.765 393.527, 483 390.508, 483 386.977 C 483 384.639, 482.558 384, 480.943 384 C 476.256 384, 469.871 381.581, 466.150 378.396 C 463.214 375.883, 461.235 375, 458.541 375 C 451.537 375, 445.013 369.171, 445.004 362.905 C 444.999 359.874, 448.098 356.677, 450.568 357.162 C 452.424 357.527, 453.269 358.836, 454.662 363.500 C 455.519 366.368, 455.809 366.502, 461.254 366.554 C 466.615 366.605, 467.150 366.840, 470.360 370.554 C 473.771 374.500, 473.771 374.500, 481.713 374.500 C 489.395 374.500, 489.898 374.350, 497.060 369.935 C 501.302 367.319, 505.245 364.032, 506.294 362.236 C 509.430 356.867, 508.222 346.067, 504.318 344.569 C 502.156 343.739, 501.518 344.401, 499.976 349.074 C 498.471 353.633, 494.050 358.650, 490.271 360.087 C 484.439 362.304, 475 359.886, 475 356.174 C 475 353.117, 477.203 352, 483.231 352 C 486.998 352, 489.217 351.557, 489.497 350.750 C 493.428 339.434, 494.133 338.190, 497.281 337.007 C 499.052 336.342, 501.582 335.281, 502.905 334.649 C 508.483 331.983, 510.241 318.260, 506.100 309.706 C 503.814 304.985, 496.785 298, 494.320 298 C 493.579 298, 493 296.904, 493 295.500 C 493 293.633, 493.528 293, 495.083 293 C 498.088 293, 496.981 290.805, 492.940 288.752 C 488.466 286.478, 481.569 286.559, 476.309 288.947 M 537.021 288.116 C 535.657 288.660, 533.695 289.869, 532.660 290.803 C 530.840 292.446, 530.871 292.516, 533.640 293.006 C 537.591 293.706, 538.187 297.485, 534.493 298.412 C 530.422 299.434, 523.530 306.995, 521.656 312.496 C 519.387 319.155, 519.576 324.740, 522.250 330.017 C 524.158 333.783, 525.320 334.766, 529.902 336.490 C 535.010 338.413, 535.395 338.806, 536.999 343.725 C 539.424 351.165, 540.380 352, 546.473 352 C 555.029 352, 557.560 353.395, 561.120 360.074 C 563.825 365.149, 564.742 366.049, 567.791 366.621 C 572.349 367.476, 574.099 366.292, 575.454 361.437 C 576.326 358.314, 577.082 357.438, 579.112 357.199 C 582.275 356.828, 584.333 359.137, 584.333 363.058 C 584.333 369.971, 578.356 375, 570.138 375 C 562.169 375, 556.296 370.958, 553.118 363.285 C 551.942 360.445, 551.654 360.327, 547.007 360.773 C 543.323 361.127, 541.018 360.703, 537.577 359.037 C 533.698 357.159, 532.568 355.880, 529.960 350.416 C 528.276 346.887, 526.450 344, 525.903 344 C 523.814 344, 520 348.982, 520 351.711 C 520 359.984, 523.367 364.599, 533 369.530 C 541.240 373.748, 544.608 376.960, 546.135 382.058 C 547.799 387.611, 546.436 391.388, 542.610 391.828 C 538.979 392.246, 538.200 391.414, 536.712 385.531 C 535.577 381.040, 535.067 380.492, 528.663 376.868 C 524.903 374.741, 521.502 373, 521.104 373 C 519.718 373, 521.874 386.836, 524.048 391.889 C 527.582 400.106, 535.773 406.036, 543.500 405.972 C 548.541 405.931, 553.461 402.369, 556.849 396.307 C 561.316 388.314, 563.803 386.958, 573.659 387.145 C 579.863 387.263, 582.364 386.855, 585.625 385.191 C 598.098 378.828, 603.406 360.782, 596.513 348.176 C 594.912 345.248, 592.302 341.927, 590.714 340.796 C 587.826 338.740, 587.826 338.740, 585.163 340.897 C 578.686 346.145, 569.669 347.820, 565.960 344.463 C 563.725 342.441, 563.416 339.725, 565.250 338.217 C 565.938 337.652, 569.078 336.442, 572.228 335.530 C 578.684 333.660, 581.400 330.943, 583.091 324.661 C 584.443 319.640, 583.575 313.667, 580.853 309.263 C 578.732 305.830, 572.219 300.747, 570.948 301.532 C 570.554 301.776, 569.935 303.947, 569.574 306.358 C 568.584 312.959, 563.932 319.649, 559.478 320.879 C 557.150 321.521, 554.932 321.545, 553.350 320.943 C 551.986 320.424, 549.341 320, 547.473 320 C 544.357 320, 543.988 320.330, 543 324 C 542.064 327.474, 541.550 328, 539.084 328 C 530.201 328, 533.034 313.124, 542.513 309.996 C 545.424 309.035, 547.025 309.136, 551.583 310.570 C 556.663 312.168, 557.250 312.179, 558.722 310.706 C 561.245 308.183, 561.522 299.223, 559.206 295.025 C 555.619 288.522, 544.602 285.091, 537.021 288.116 M 259 295.500 L 259 301 265 301 L 271 301 271 295.500 L 271 290 265 290 L 259 290 259 295.500 M 354 293 C 352.900 294.100, 352 295.900, 352 297 C 352 298.100, 352.900 299.900, 354 301 C 355.100 302.100, 356.900 303, 358 303 C 359.100 303, 360.900 302.100, 362 301 C 363.100 299.900, 364 298.100, 364 297 C 364 295.900, 363.100 294.100, 362 293 C 360.900 291.900, 359.100 291, 358 291 C 356.900 291, 355.100 291.900, 354 293 M 667.637 292.506 C 665.146 294.997, 664.712 297.912, 666.440 300.549 C 668.415 303.563, 672.236 303.764, 675 301 C 677.306 298.694, 677.439 297.703, 675.850 294.684 C 673.771 290.735, 670.323 289.820, 667.637 292.506 M 746.117 301.631 C 740.030 305.894, 740.116 315.699, 746.281 320.400 L 749.500 322.854 749.221 352.318 L 748.942 381.782 744.221 382.470 C 731.531 384.320, 719.475 394.034, 714.993 406.019 L 712.787 411.917 705.644 412.208 C 698.768 412.489, 698.500 412.594, 698.500 415 C 698.500 417.410, 698.762 417.511, 705.750 417.794 C 712.937 418.085, 713 418.112, 713 420.862 C 713 425.257, 715.865 433.751, 719.146 439.083 C 729.197 455.418, 751.185 461.541, 768.585 452.851 C 778.037 448.130, 787.143 434.709, 788.554 423.418 L 789.217 418.111 801.806 417.806 C 813.202 417.529, 814.565 417.684, 816.197 419.439 C 817.189 420.505, 818 421.670, 818 422.028 C 818 422.993, 822.792 425, 825.097 425 C 830.846 425, 835.921 418.806, 834.573 413.434 C 833.641 409.721, 829.252 406, 825.804 406 C 822.290 406, 817.462 408.355, 816.653 410.463 C 816.162 411.741, 813.778 412, 802.500 412 C 790.476 412, 788.870 411.802, 788.344 410.250 C 783.492 395.925, 775.504 387.748, 762.132 383.416 L 755.500 381.267 755.235 351.993 L 754.969 322.718 758.908 319.347 C 763.577 315.350, 764.686 311.578, 762.635 306.670 C 760.124 300.659, 751.333 297.977, 746.117 301.631 M 749.884 307.893 C 747.739 309.630, 747.661 309.999, 748.943 312.393 C 751.316 316.827, 756 315.177, 756 309.907 C 756 308.374, 755.319 306.953, 754.418 306.607 C 752.320 305.802, 752.545 305.738, 749.884 307.893 M 261.621 322.750 C 261.338 323.712, 260.807 326.192, 260.440 328.261 C 260.073 330.330, 259.350 332.284, 258.833 332.603 C 258.316 332.923, 255.423 331.935, 252.404 330.407 L 246.916 327.630 238.889 335.565 C 234.474 339.929, 230.460 344.226, 229.969 345.113 C 229.367 346.200, 229.716 347.982, 231.038 350.575 C 233.891 356.171, 233.583 357.509, 229.134 358.842 C 227.008 359.479, 224.533 360, 223.634 360 C 222.195 360, 222 361.777, 222 374.868 L 222 389.736 228 391.420 C 231.300 392.346, 234 393.320, 234 393.585 C 234 393.850, 232.891 396.256, 231.535 398.931 L 229.070 403.796 231.922 407.648 C 233.490 409.767, 237.507 414.169, 240.848 417.430 L 246.922 423.360 251.846 420.680 C 258.825 416.882, 259.758 417.105, 260.513 422.750 C 260.863 425.363, 261.327 428.063, 261.543 428.750 C 261.834 429.674, 265.698 430, 276.355 430 L 290.773 430 291.468 425.368 C 292.796 416.510, 292.800 416.508, 299.180 420.349 L 304.802 423.735 314.370 414.117 L 323.938 404.500 320.986 399.500 C 319.362 396.750, 318.026 394.197, 318.017 393.828 C 318 393.155, 322.080 391.715, 327.250 390.571 L 330 389.962 330 374.981 C 330 361.785, 329.805 360, 328.366 360 C 327.467 360, 324.992 359.479, 322.866 358.842 C 318.407 357.506, 318.180 356.404, 321.060 350.057 L 323.075 345.613 313.921 336.421 L 304.766 327.228 299.956 330.218 C 297.311 331.863, 294.693 332.929, 294.140 332.587 C 293.587 332.245, 292.622 329.498, 291.996 326.483 L 290.858 321 276.496 321 C 263.681 321, 262.079 321.188, 261.621 322.750 M 270.750 332.668 C 269.420 333.032, 269 334.206, 269 337.554 C 269 341.536, 268.734 342.026, 266.250 342.621 C 264.738 342.984, 262.182 343.946, 260.571 344.759 C 257.727 346.194, 257.561 346.138, 254.865 342.868 L 252.088 339.500 246.332 345.223 L 240.575 350.947 243.463 353.961 C 245.951 356.559, 246.195 357.289, 245.220 359.238 C 244.598 360.482, 243.415 363.194, 242.590 365.265 C 241.765 367.336, 240.732 368.970, 240.295 368.897 C 239.858 368.823, 237.813 368.816, 235.750 368.882 C 232 369, 232 369, 232 373.918 C 232 381.229, 232.535 382, 237.607 382 C 241.059 382, 242 382.361, 242 383.684 C 242 384.611, 242.955 387.341, 244.122 389.752 L 246.244 394.136 243.421 397.083 L 240.598 400.030 246.008 405.508 L 251.419 410.987 254.486 408.014 L 257.553 405.041 263.526 407.491 C 269.500 409.940, 269.500 409.940, 269.200 414.470 L 268.900 419 274.950 419.150 C 278.277 419.233, 281.563 419.345, 282.250 419.400 C 283.104 419.468, 283.500 417.836, 283.500 414.248 C 283.500 410.256, 283.860 408.992, 285 408.976 C 285.825 408.965, 288.517 408.041, 290.981 406.923 L 295.462 404.891 298.187 408.195 L 300.912 411.500 306.631 405.814 L 312.349 400.129 309.347 397.314 C 306.344 394.500, 306.344 394.500, 308.146 390.500 C 309.137 388.300, 309.959 385.764, 309.974 384.864 C 309.992 383.697, 311.292 383.033, 314.496 382.553 C 319.604 381.787, 320.427 380.280, 319.795 372.853 C 319.425 368.500, 319.425 368.500, 315.202 368.803 C 311.842 369.044, 310.864 368.737, 310.421 367.303 C 310.115 366.311, 309.033 363.653, 308.016 361.397 C 306.168 357.293, 306.168 357.293, 309.240 354.221 L 312.312 351.149 306.642 345.325 L 300.972 339.500 297.934 342.824 L 294.896 346.148 289.496 343.910 C 284.167 341.701, 284.092 341.612, 283.798 337.086 L 283.500 332.500 278 332.344 C 274.975 332.259, 271.712 332.404, 270.750 332.668 M 267.355 353.447 C 262.432 355.589, 255.902 362.062, 253.861 366.825 C 247.855 380.835, 257.115 396.865, 272.713 399.462 C 282.521 401.095, 294.976 393.866, 298.570 384.456 C 304.388 369.221, 292.643 351.935, 276.544 352.039 C 273.220 352.061, 269.085 352.694, 267.355 353.447 M 702 357 L 702 362 707.500 362 L 713 362 713 357 L 713 352 707.500 352 L 702 352 702 357 M 796.174 354.314 C 793.486 357.176, 793.351 361.977, 795.871 365.089 C 798.642 368.511, 804.494 368.290, 807.630 364.644 C 810.548 361.251, 810.642 358.086, 807.927 354.635 C 805.159 351.115, 799.329 350.956, 796.174 354.314 M 800.040 357.452 C 798.446 359.373, 799.098 362.395, 801.194 362.799 C 803.528 363.248, 805.532 359.346, 803.947 357.436 C 802.442 355.622, 801.555 355.626, 800.040 357.452 M 267.990 362.250 C 263.196 365.513, 260.849 369.162, 260.276 374.244 C 259.613 380.123, 262.099 385.329, 267.419 389.207 C 271.005 391.821, 272.142 392.130, 276.791 391.755 C 283.243 391.235, 286.718 388.883, 289.815 382.941 C 295.340 372.338, 287.911 360, 276 360 C 272.768 360, 270.261 360.704, 267.990 362.250 M 705.250 382.641 C 702.989 383.592, 703.804 387.954, 706.470 389.168 C 709.697 390.639, 712.221 388.705, 711.801 385.086 C 711.574 383.139, 710.882 382.452, 709 382.307 C 707.625 382.201, 705.938 382.351, 705.250 382.641 M 428.895 388.740 C 428.310 390.258, 427.986 394.650, 428.176 398.500 C 428.461 404.290, 429.042 406.274, 431.532 409.974 C 434.610 414.550, 440.143 419, 442.755 419 C 443.755 419, 443.985 418.450, 443.486 417.250 C 443.085 416.288, 442.541 413.474, 442.276 410.999 C 441.885 407.357, 442.181 406.146, 443.825 404.658 C 447.226 401.581, 449.440 403.224, 450.806 409.841 C 452.142 416.306, 456.669 423.916, 461.027 427.019 C 471.803 434.692, 488.325 433.430, 498.270 424.175 C 503.452 419.351, 508.998 409.510, 508.999 405.134 C 509 402.849, 508.864 402.890, 505.045 406.340 C 497.022 413.589, 488.759 416.061, 480.705 413.621 C 474.017 411.595, 469.555 407.868, 466.970 402.147 L 464.761 397.260 455.630 396.767 C 445.396 396.213, 441.643 394.933, 434.729 389.636 L 429.958 385.981 428.895 388.740 M 594.648 390.035 C 588.621 394.569, 580.967 397, 572.712 397.002 L 565.500 397.005 562.669 402.422 C 555.126 416.859, 536.519 418.688, 523.750 406.248 C 520.096 402.687, 520 402.657, 520.001 405.047 C 520.002 409.640, 525.488 419.355, 530.755 424.090 C 544.609 436.546, 567.179 434.111, 575.245 419.291 C 576.713 416.593, 578.215 412.509, 578.582 410.214 C 579.571 404.028, 581.140 402.287, 584.390 403.768 C 586.635 404.791, 587 405.581, 587 409.413 C 587 411.864, 586.561 415.024, 586.025 416.435 C 585.229 418.529, 585.345 419, 586.657 419 C 592.622 419, 601.078 408.104, 601.792 399.498 C 602.207 394.487, 600.613 386.922, 599.172 387.068 C 598.803 387.106, 596.766 388.441, 594.648 390.035 M 740.718 392.378 C 734.677 394.627, 730.204 398.130, 726.512 403.500 C 721.308 411.071, 719.568 422, 723.567 422 C 724.508 422, 725.015 420.884, 725.044 418.750 C 725.205 406.793, 735.618 396.276, 748.290 395.270 C 760.149 394.328, 769.233 399.119, 774.334 409.007 C 776.871 413.924, 777.113 415.214, 776.637 421.313 C 776.167 427.345, 776.300 428.089, 777.803 427.802 C 778.986 427.577, 779.762 425.937, 780.365 422.392 C 782.126 412.042, 775.953 400.573, 765.243 394.297 C 761.528 392.119, 759.187 391.564, 752.592 391.297 C 747.333 391.084, 743.176 391.463, 740.718 392.378 M 197.455 411.455 C 195.907 413.002, 195 415.052, 195 417 C 195 420.855, 198.902 425, 202.531 425 C 205.871 425, 211 419.987, 211 416.723 C 211 415.386, 209.896 413.101, 208.548 411.646 C 205.346 408.191, 200.797 408.112, 197.455 411.455 M 822.384 413.442 C 821.299 416.268, 822.477 418.495, 825.224 418.813 C 827.403 419.065, 828.053 418.638, 828.559 416.620 C 828.905 415.241, 828.894 413.638, 828.535 413.057 C 827.567 411.491, 823.023 411.775, 822.384 413.442 M 200.659 415.447 C 199.698 417.950, 201.061 420.133, 203.377 419.803 C 204.894 419.586, 205.500 418.786, 205.500 417 C 205.500 414.086, 201.654 412.853, 200.659 415.447 M 505.500 429.367 C 501.018 434.049, 494.440 437.498, 486.909 439.113 C 483.838 439.772, 482.033 440.647, 482.301 441.348 C 485.841 450.609, 489.082 462.064, 489.935 468.322 C 490.521 472.625, 491 488.712, 491 504.072 L 491 532 501 532 L 511 532 511 478.500 C 511 449.075, 510.663 425.042, 510.250 425.094 C 509.837 425.146, 507.700 427.069, 505.500 429.367 M 518 478.500 L 518 532 528.543 532 L 539.086 532 538.893 500.250 C 538.680 465.166, 539.212 460.442, 544.872 447.140 C 547.899 440.028, 547.902 440, 545.705 439.989 C 538.983 439.956, 526.418 433.662, 521.567 427.897 C 520.226 426.304, 518.875 425, 518.565 425 C 518.254 425, 518 449.075, 518 478.500 M 768.092 437.402 C 764.359 441.376, 757.787 444, 751.567 444 C 746.665 444, 745.901 444.249, 746.186 445.750 C 746.692 448.404, 756.661 448.689, 762.243 446.208 C 767.291 443.965, 773 439.353, 773 437.518 C 773 435.164, 770.255 435.100, 768.092 437.402 M 208.153 447.247 C 207.519 447.881, 207 449.210, 207 450.200 C 207 451.533, 207.778 452, 210 452 C 212.315 452, 213 451.552, 213 450.035 C 213 447.512, 209.755 445.645, 208.153 447.247 M 259.227 447.173 C 257.449 448.951, 257.719 450.779, 259.934 451.965 C 260.998 452.534, 266.816 453, 272.863 453 C 281.668 453, 284.180 452.677, 285.479 451.379 C 286.370 450.487, 286.959 449.024, 286.788 448.129 C 286.521 446.741, 284.553 446.459, 273.465 446.223 C 264.195 446.025, 260.102 446.298, 259.227 447.173 M 298.235 447.165 C 294.674 450.726, 298.378 453, 307.743 453 C 315.728 453, 319.224 451.301, 317.394 448.309 C 316.495 446.837, 314.722 446.447, 307.880 446.215 C 302.197 446.022, 299.070 446.330, 298.235 447.165 M 220 449.350 C 220 452.016, 221.416 452.956, 224.302 452.207 C 227.246 451.443, 226.047 447.563, 222.750 447.184 C 220.403 446.914, 220 447.231, 220 449.350 M 233 449.393 C 233 452.314, 235.815 453.613, 237.814 451.614 C 239.845 449.583, 238.567 447, 235.531 447 C 233.528 447, 233 447.499, 233 449.393 M 245.573 448.670 C 244.613 451.172, 247.625 453.271, 250.198 451.894 C 252.872 450.463, 252.052 447.566, 248.869 447.196 C 247.096 446.990, 246.036 447.464, 245.573 448.670 M 705.667 447.667 C 704.291 449.042, 705.072 451.888, 706.991 452.497 C 709.694 453.355, 711 452.360, 711 449.441 C 711 447.550, 710.474 447, 708.667 447 C 707.383 447, 706.033 447.300, 705.667 447.667 M 718.359 448.507 C 718.006 449.427, 718.416 450.844, 719.286 451.714 C 721.410 453.838, 724.227 452.621, 723.820 449.754 C 723.426 446.977, 719.307 446.037, 718.359 448.507 M 779.709 447.624 C 778.266 449.068, 779.065 451.886, 781.101 452.532 C 783.629 453.335, 785.318 451.898, 784.834 449.356 C 784.476 447.482, 781.019 446.314, 779.709 447.624 M 792.358 448.511 C 791.407 450.989, 794.571 453.760, 796.769 452.374 C 797.721 451.773, 798.500 450.431, 798.500 449.391 C 798.500 446.868, 793.275 446.119, 792.358 448.511 M 805.380 448.452 C 804.559 450.591, 805.799 452, 808.500 452 C 811.268 452, 812.258 450.835, 811.396 448.590 C 810.632 446.600, 806.130 446.496, 805.380 448.452 M 284.303 465.185 C 280.344 468.052, 279 470.873, 279 476.315 C 279 481.442, 282.725 487.463, 286.481 488.406 C 289.053 489.051, 289.053 489.051, 288.777 503.604 L 288.500 518.156 283.031 520.081 C 275.659 522.675, 271.064 526.600, 267.662 533.211 C 264.086 540.159, 263.776 549.680, 266.924 555.851 C 275.049 571.777, 296.319 575.979, 309.912 564.343 C 312.192 562.392, 314.853 559.243, 315.827 557.347 L 317.596 553.898 334.298 553.540 L 351 553.182 351 555.668 C 351 559.172, 356.093 564, 359.788 564 C 361.406 564, 363.916 563.067, 365.365 561.927 C 368.685 559.316, 368.987 553.524, 366 549.727 C 364.303 547.570, 364 545.670, 364 537.201 C 364 527.654, 364.099 527.192, 366.271 526.647 C 369.775 525.767, 374.874 520.190, 375.571 516.474 C 378.094 503.025, 360.824 496.510, 352.088 507.615 C 347.966 512.856, 350.479 523.439, 356.498 526.181 C 358.918 527.284, 359 527.640, 359 537.054 C 359 545.006, 358.711 546.897, 357.418 547.393 C 356.548 547.727, 347.548 548, 337.418 548 L 319 548 319 545.182 C 319 540.044, 316.093 532.469, 312.520 528.295 C 309.007 524.191, 300.230 519, 296.804 519 C 295.770 519, 294.980 518.253, 294.954 517.250 C 294.929 516.288, 294.664 509.556, 294.366 502.291 C 293.824 489.082, 293.824 489.082, 296.401 488.435 C 298.862 487.818, 303.698 483.149, 305.838 479.325 C 306.751 477.694, 308.819 478.511, 328.548 488.305 C 349.089 498.502, 350.353 498.990, 352.103 497.406 C 353.121 496.486, 353.685 495.299, 353.357 494.769 C 352.583 493.516, 310.923 473.009, 309.142 473.004 C 308.394 473.002, 305.850 470.894, 303.487 468.321 C 299.454 463.928, 298.833 463.618, 293.345 463.255 C 288.447 462.932, 286.982 463.245, 284.303 465.185 M 363.667 468.667 C 363.300 469.033, 363 471.532, 363 474.219 L 363 479.105 368.250 478.802 C 373.500 478.500, 373.500 478.500, 373.528 474.500 C 373.544 472.300, 373.383 469.938, 373.171 469.250 C 372.769 467.944, 364.874 467.459, 363.667 468.667 M 414.527 474.207 C 412.943 476.018, 407.677 481.834, 402.824 487.131 C 397.971 492.428, 394 497.400, 394 498.181 C 394 499.664, 395.895 502, 397.099 502 C 397.483 502, 403.263 496.067, 409.944 488.815 C 418.568 479.455, 422.005 475.032, 421.795 473.565 C 421.313 470.195, 417.762 470.508, 414.527 474.207 M 608.026 472.469 C 606.615 474.169, 606.549 474.077, 620.916 490.399 C 627.972 498.415, 630.851 501.021, 632.406 500.798 C 636.402 500.224, 635.288 497.083, 628.119 488.717 C 612.803 470.843, 610.752 469.184, 608.026 472.469 M 757.083 477.750 C 729.872 478.020, 726 478.431, 726 481.051 C 726 481.494, 726.707 482.564, 727.571 483.429 C 728.932 484.789, 733.270 485, 759.871 485 C 791.817 485, 793 484.849, 793 480.775 C 793 478.978, 789.055 476.766, 786.685 477.234 C 786.033 477.362, 772.713 477.595, 757.083 477.750 M 71.578 481.565 C 70.180 482.963, 70 489.318, 70 537.414 C 70 591.685, 70 591.685, 72.289 596.014 C 76.847 604.634, 70.800 603.989, 147.387 604.022 C 223.048 604.054, 218.167 604.513, 221.995 597.009 C 223.962 593.153, 224.010 591.538, 223.758 536.773 L 223.500 480.500 148.328 480.244 C 80.975 480.014, 72.991 480.152, 71.578 481.565 M 815.250 480.662 C 814.275 481.056, 814 491.486, 814 528.083 L 814 575 819.370 575 L 824.740 575 826.033 579.619 C 827.174 583.695, 827.120 584.622, 825.569 587.501 C 824.603 589.296, 822.771 591.239, 821.499 591.818 C 818.838 593.031, 817.637 597.200, 818.766 601.301 L 819.537 604.102 888.490 604.026 L 957.443 603.950 960.228 601.282 C 961.759 599.814, 963.457 597.013, 964.001 595.057 C 965.522 589.582, 965.333 482.733, 963.800 481.200 C 962.887 480.287, 945.122 480.019, 889.550 480.079 C 849.372 480.122, 815.938 480.385, 815.250 480.662 M 659.628 483.750 C 659.994 485.262, 662.583 489.834, 665.381 493.908 L 670.468 501.316 671.335 497.652 C 671.996 494.857, 672.830 493.834, 674.851 493.340 C 678.295 492.498, 678.635 491.866, 678.186 487.153 L 677.810 483.215 670.364 482.107 C 659.190 480.445, 658.841 480.499, 659.628 483.750 M 112.275 487.116 C 104.665 489.741, 95.031 498.031, 91.506 504.988 C 82.433 522.893, 89.339 545.506, 106.708 554.763 C 118.194 560.886, 132.030 560.868, 143.221 554.716 L 148.981 551.549 154.471 556.971 C 159.587 562.024, 159.921 562.642, 159.377 566.046 C 158.518 571.414, 160.299 573.985, 174.753 588.250 C 186.878 600.217, 187.912 601, 191.586 600.996 C 199.375 600.989, 204.935 594.800, 203.591 587.634 C 203.097 584.998, 200.023 581.300, 189.908 571.172 C 176.404 557.651, 172.075 554.819, 168.135 556.928 C 166.447 557.831, 165.342 557.120, 160.249 551.851 L 154.326 545.723 157.913 538.731 C 161.298 532.135, 161.500 531.196, 161.500 522.099 C 161.500 513.243, 161.235 511.921, 158.250 505.856 C 151.999 493.158, 140.751 485.874, 126.500 485.294 C 120.289 485.041, 117.108 485.449, 112.275 487.116 M 872.375 489.836 C 869.432 493.313, 868.963 493.500, 863.192 493.500 C 857.686 493.500, 856.794 493.193, 853.758 490.250 C 850.080 486.685, 849.261 486.468, 845.662 488.108 C 843.618 489.039, 843.157 490.089, 842.777 494.680 C 842.393 499.304, 841.776 500.691, 838.758 503.709 C 835.835 506.632, 834.264 507.364, 830.054 507.769 C 825.591 508.198, 824.713 508.655, 823.373 511.246 C 821.876 514.140, 821.924 514.326, 824.950 517.448 C 830.894 523.581, 830.947 531.339, 825.087 537.435 C 822.280 540.356, 822.206 540.653, 823.522 543.750 C 824.795 546.745, 825.264 547, 829.501 547 C 838.430 547, 843 551.677, 843 560.815 C 843 565.568, 843.123 565.776, 846.750 567.183 C 850.500 568.638, 850.500 568.638, 854.570 564.319 C 858.157 560.512, 859.156 560, 862.991 560 C 866.835 560, 867.840 560.518, 871.603 564.446 L 875.864 568.893 879.949 567.288 C 882.839 566.153, 883.897 565.218, 883.565 564.092 C 881.953 558.631, 881.951 556.906, 883.548 553.541 C 885.880 548.625, 890.018 546.605, 896.246 547.343 C 901.107 547.918, 901.143 547.901, 902.646 544.305 C 904.157 540.688, 904.157 540.688, 900.160 537.033 C 895.199 532.499, 894.030 527.846, 896.528 522.582 C 897.471 520.596, 899.538 518.205, 901.121 517.269 C 904.330 515.374, 904.461 514.792, 902.635 510.511 C 901.432 507.688, 901.041 507.521, 895.604 507.511 C 890.218 507.501, 889.621 507.254, 886.352 503.687 C 883.227 500.277, 882.886 499.356, 883.119 494.961 C 883.418 489.339, 883.531 489.538, 878.937 487.618 C 875.503 486.183, 875.453 486.201, 872.375 489.836 M 683 487.846 C 683 490.154, 685.336 493.832, 687.399 494.772 C 688.597 495.318, 698.785 501.825, 710.039 509.231 C 743.545 531.283, 748.099 534.003, 751.446 533.964 L 754.500 533.928 751.791 531.709 C 750.301 530.489, 743.195 525.667, 736.001 520.995 C 728.807 516.323, 714.501 506.951, 704.210 500.168 C 683.943 486.810, 683 486.262, 683 487.846 M 115.554 492.671 C 109.131 494.490, 100.783 501.673, 97.160 508.500 C 94.858 512.837, 94.517 514.627, 94.592 522 C 94.696 532.252, 96.988 537.891, 103.489 543.883 C 110.662 550.495, 115.305 552.388, 124.500 552.448 C 131.313 552.492, 133.351 552.082, 138.239 549.682 C 144.306 546.703, 149.240 541.515, 152.879 534.290 C 154.502 531.068, 154.998 528.251, 154.990 522.290 C 154.979 513.038, 152.465 506.646, 146.495 500.687 C 140.332 494.537, 135.751 492.680, 126 492.381 C 121.325 492.237, 116.624 492.368, 115.554 492.671 M 681 496.801 C 674.342 500.053, 675.452 501.728, 690.703 511.452 C 698.291 516.290, 708.801 523.138, 714.057 526.668 L 723.614 533.087 732.057 532.794 L 740.500 532.500 734.351 528 C 724.659 520.908, 687.445 496.100, 685.500 495.434 C 684.950 495.246, 682.925 495.861, 681 496.801 M 311.423 504.452 C 310.591 507.764, 312.584 510.191, 315.814 509.801 C 321.610 509.099, 321.087 502.778, 315.183 502.189 C 312.553 501.927, 311.968 502.278, 311.423 504.452 M 854 506.594 C 840.224 512.561, 835.977 530.603, 845.679 541.938 C 861.799 560.771, 891.508 545.119, 885.054 521.193 C 883.625 515.896, 877.846 509.300, 872.500 506.866 C 867.610 504.639, 858.813 504.509, 854 506.594 M 367.032 510.667 C 367.071 512.951, 369.735 516.599, 370.676 515.657 C 371.643 514.690, 369.775 509.755, 368.250 509.248 C 367.548 509.015, 367.014 509.636, 367.032 510.667 M 857.450 514.407 C 849.132 518.030, 846.305 527.804, 851.243 535.865 C 856.146 543.866, 869.254 544.070, 874.835 536.231 C 878.153 531.571, 878.536 526.738, 876 521.499 C 872.473 514.214, 864.708 511.245, 857.450 514.407 M 286.994 525.896 C 278.933 528.470, 275.086 532.215, 272.499 540.004 C 271.251 543.761, 271.132 545.378, 271.987 546.976 C 273.451 549.710, 275 548.643, 275 544.901 C 275 537.047, 283.422 528.982, 291.588 529.016 C 299.521 529.050, 307.066 535.760, 308.375 543.945 C 309.080 548.355, 312.004 549.813, 311.994 545.750 C 311.978 538.938, 306.976 530.591, 301.088 527.546 C 297.651 525.768, 290.146 524.890, 286.994 525.896 M 621.017 528.286 C 619.651 528.977, 618.104 530.764, 617.579 532.257 C 616.785 534.513, 617.023 535.395, 618.986 537.485 C 621.822 540.503, 625.046 540.712, 627.470 538.033 C 629.942 535.301, 629.730 531.010, 627.014 528.810 C 624.374 526.673, 624.230 526.660, 621.017 528.286 M 402.571 529.571 C 398.992 533.151, 401.572 540, 406.500 540 C 410.951 540, 413.984 532.384, 410.800 529.200 C 409.101 527.501, 404.431 527.712, 402.571 529.571 M 284.104 535.914 C 282.425 536.977, 283.356 540, 285.362 540 C 286.698 540, 288 537.986, 288 535.918 C 288 534.759, 285.932 534.757, 284.104 535.914 M 911.136 538.073 C 909.360 538.785, 908.912 539.554, 909.334 541.168 C 910.747 546.572, 904.967 553, 898.696 553 C 895.992 553, 895.074 553.542, 894.079 555.725 C 892.996 558.104, 893.084 558.649, 894.772 560.017 C 899.889 564.160, 900.376 570.363, 895.979 575.371 C 893.283 578.442, 893.085 579.092, 894.139 581.406 C 895.143 583.610, 895.965 584, 899.605 584 C 905.993 584, 909.530 587.377, 909.405 593.357 C 909.319 597.482, 909.578 597.997, 912.304 599.126 C 915.047 600.262, 915.472 600.152, 917.398 597.811 C 922.136 592.053, 927.141 591.841, 932.028 597.192 C 934.658 600.072, 935.080 600.210, 937.802 599.082 C 940.530 597.952, 940.705 597.563, 940.260 593.616 C 939.864 590.105, 940.220 588.856, 942.305 586.433 C 944.536 583.840, 945.410 583.524, 949.845 583.708 C 954.483 583.900, 954.932 583.711, 955.794 581.208 C 956.610 578.839, 956.306 578.108, 953.363 575.365 C 950.707 572.889, 950 571.446, 950 568.500 C 950 565.554, 950.707 564.111, 953.363 561.635 C 956.324 558.875, 956.613 558.171, 955.780 555.750 C 954.937 553.302, 954.343 553, 950.371 553 C 946.967 553, 945.327 552.418, 943.455 550.545 C 941.045 548.136, 940.848 547.510, 940.615 541.534 C 940.527 539.254, 939.865 538.342, 937.755 537.593 C 935.408 536.759, 934.601 537.008, 932.200 539.309 C 928.287 543.058, 920.973 543.153, 917.588 539.500 C 915.056 536.769, 914.630 536.674, 911.136 538.073 M 673.521 542.190 C 664.187 544.240, 658.533 555.340, 662.064 564.685 C 664.319 570.654, 671.597 576, 677.468 576 C 680.028 576, 680.849 574.643, 678.986 573.491 C 678.428 573.146, 677.012 570.984, 675.839 568.685 C 672.622 562.379, 672.786 552.866, 676.217 546.728 C 677.663 544.140, 678.543 541.864, 678.173 541.670 C 677.803 541.475, 675.710 541.709, 673.521 542.190 M 455.250 542.658 C 453.632 543.317, 453.703 546.025, 455.398 548.258 C 456.648 549.906, 460.402 550, 515.007 549.758 C 569.256 549.518, 573.359 549.379, 574.386 547.750 C 575.191 546.474, 575.191 545.526, 574.386 544.250 C 573.358 542.619, 569.304 542.488, 514.891 542.325 C 482.776 542.228, 455.938 542.378, 455.250 542.658 M 687.956 545.082 C 686.789 547.264, 689.065 547.286, 782.143 546.009 C 782.497 546.004, 783.045 545.325, 783.362 544.500 C 783.868 543.180, 778.256 543, 736.504 543 C 689.472 543, 689.061 543.018, 687.956 545.082 M 404.362 545.500 C 403.569 547.564, 404.644 550, 406.346 550 C 408.393 550, 410.135 547.514, 409.410 545.627 C 408.626 543.584, 405.131 543.496, 404.362 545.500 M 620.503 545.991 C 619.650 548.679, 620.637 550, 623.500 550 C 626.363 550, 627.350 548.679, 626.497 545.991 C 626.101 544.742, 624.983 544, 623.500 544 C 622.017 544, 620.899 544.742, 620.503 545.991 M 698.500 551 C 685.333 551.470, 684.500 551.619, 684.500 553.500 C 684.500 555.468, 685.253 555.504, 731.750 555.760 L 779 556.020 778.998 553.260 L 778.995 550.500 745.748 550.500 C 727.461 550.500, 706.200 550.725, 698.500 551 M 917.401 552.905 C 911.657 555.514, 908.695 560.062, 908.190 567.051 C 907.670 574.234, 909.890 579.237, 915.138 582.710 C 927.060 590.599, 942.286 582.629, 942.286 568.500 C 942.286 555.470, 929.457 547.430, 917.401 552.905 M 357.389 554.430 C 356.393 557.025, 357.788 559.169, 360.246 558.820 C 361.898 558.585, 362.500 557.833, 362.500 556 C 362.500 554.167, 361.898 553.415, 360.246 553.180 C 358.893 552.988, 357.750 553.488, 357.389 554.430 M 305.542 555.868 C 305.216 556.896, 304.060 558.540, 302.974 559.523 C 300.467 561.793, 300.463 563, 302.964 563 C 304.722 563, 310 556.825, 310 554.768 C 310 553.137, 306.103 554.099, 305.542 555.868 M 404.709 555.624 C 404.319 556.014, 404 562.122, 404 569.198 C 404 579.759, 404.271 582.167, 405.513 582.643 C 406.345 582.963, 407.708 582.658, 408.542 581.966 C 409.779 580.939, 410.006 578.389, 409.779 568.104 C 409.517 556.284, 409.373 555.482, 407.459 555.208 C 406.336 555.047, 405.099 555.235, 404.709 555.624 M 621.163 557.878 C 620.427 558.345, 619.977 559.800, 620.163 561.113 C 620.568 563.981, 624.676 564.461, 626.333 561.834 C 628.238 558.813, 624.364 555.849, 621.163 557.878 M 920.388 557.929 C 914.315 560.530, 911.911 570.075, 916.016 575.293 C 918.871 578.922, 924.057 580.466, 928.484 579.005 C 939.642 575.323, 938.111 558.687, 926.500 557.450 C 924.300 557.216, 921.550 557.431, 920.388 557.929 M 685.183 561.740 L 685.500 564.500 732.317 564.760 L 779.135 565.020 778.817 562.260 L 778.500 559.500 731.683 559.240 L 684.865 558.980 685.183 561.740 M 455.571 561.571 C 454.707 562.436, 454 563.529, 454 564 C 454 564.471, 454.707 565.564, 455.571 566.429 C 456.963 567.821, 463.690 568, 514.500 568 C 565.310 568, 572.037 567.821, 573.429 566.429 C 575.446 564.411, 575.406 563.678, 573.171 561.655 C 571.515 560.156, 565.971 560, 514.243 560 C 463.667 560, 456.963 560.180, 455.571 561.571 M 688 568.878 C 688 571.889, 691.306 572.113, 736.170 572.149 C 761.102 572.169, 781.853 572.144, 782.285 572.093 C 782.717 572.042, 782.589 571.100, 782 570 C 780.953 568.044, 779.906 568, 734.465 568 C 708.477 568, 688 568.387, 688 568.878 M 620.667 570.667 C 619.289 572.044, 620.076 574.970, 622.117 576.062 C 624.899 577.552, 627.519 575.209, 626.535 572.112 C 625.886 570.066, 622.180 569.153, 620.667 570.667 M 456.250 579.031 C 455.012 579.529, 454 580.795, 454 581.845 C 454 586.486, 453.917 586.480, 513.404 586.839 C 572.931 587.199, 575.431 587.034, 574.819 582.773 C 574.150 578.112, 573.037 578.026, 514 578.078 C 483.367 578.105, 457.492 578.532, 456.250 579.031 M 692.500 581.729 C 686.430 582.823, 682.056 585.311, 679.357 589.206 C 676.865 592.802, 676.500 594.241, 676.500 600.483 C 676.500 606.612, 676.894 608.234, 679.248 611.795 C 682.837 617.224, 686.009 619.198, 692.076 619.781 L 697.038 620.258 693.592 615.137 C 687.988 606.809, 687.846 595.385, 693.227 585.809 C 695.559 581.661, 695.475 581.192, 692.500 581.729 M 705.500 585 C 703.692 586.998, 703.753 587, 759.810 587 C 814.906 587, 815.949 586.964, 817 585 C 818.064 583.011, 817.760 583, 762.690 583 C 708.580 583, 707.268 583.046, 705.500 585 M 236 593 C 236 594.180, 236.718 595.063, 237.750 595.154 C 238.713 595.238, 265.004 595.185, 296.177 595.035 L 352.853 594.762 355.427 597.336 C 356.869 598.778, 358 601.050, 358 602.504 C 358 605.805, 355.559 610.571, 353.455 611.379 C 352.565 611.720, 325.773 612, 293.918 612 C 243.102 612, 236 612.184, 236 613.500 C 236 614.816, 243.214 615, 294.923 615 L 353.847 615 356.794 612.520 C 363.184 607.143, 363.233 598.898, 356.905 593.574 L 353.847 591 294.923 591 C 236.667 591, 236 591.023, 236 593 M 701 593.906 L 701 596.812 755.911 596.800 C 810.822 596.788, 810.822 596.788, 811.397 594.644 C 811.714 593.465, 811.979 592.163, 811.986 591.750 C 811.994 591.337, 787.025 591, 756.500 591 L 701 591 701 593.906 M 456.250 597.031 C 453.232 598.244, 453.394 601.403, 456.547 602.839 C 459.930 604.381, 570.198 604.499, 573.066 602.965 C 575.627 601.594, 575.514 599.473, 572.777 597.557 C 570.827 596.191, 563.687 596.008, 514.527 596.063 C 483.620 596.098, 457.491 596.532, 456.250 597.031 M 701 603.058 L 701 606 756.406 606 C 811.813 606, 811.813 606, 811.244 603.750 C 810.931 602.513, 810.186 601.163, 809.588 600.751 C 808.989 600.339, 784.313 600.028, 754.750 600.059 L 701 600.116 701 603.058 M 69.528 611.129 C 70.557 615.813, 72.037 617.817, 75.308 618.958 C 77.078 619.575, 104.466 619.988, 147.611 620.049 C 213.112 620.141, 217.242 620.042, 220.183 618.323 C 223.098 616.618, 226.617 609.950, 225.298 608.631 C 225.001 608.334, 223.133 609.196, 221.147 610.546 L 217.536 613 147.518 612.985 C 93.787 612.974, 77.005 612.683, 75.372 611.735 C 74.201 611.056, 72.244 609.898, 71.023 609.162 C 68.867 607.863, 68.824 607.920, 69.528 611.129 M 962.500 610.593 L 959.500 613.007 894.500 612.990 C 858.750 612.980, 828.769 612.978, 827.876 612.986 C 826.576 612.997, 826.385 613.647, 826.917 616.250 L 827.582 619.500 893.711 619.500 C 959.839 619.500, 959.839 619.500, 962.309 617.180 C 964.353 615.259, 966.687 609.337, 965.757 608.430 C 965.616 608.292, 964.150 609.266, 962.500 610.593 M 702.658 610.553 C 702.881 611.132, 704.356 612.370, 705.936 613.303 C 708.541 614.842, 713.793 615, 762.404 615 C 791.882 615, 816 614.620, 816 614.155 C 816 613.690, 815.190 612.576, 814.199 611.680 C 812.588 610.222, 806.581 610.021, 757.326 609.775 C 719.070 609.584, 702.377 609.822, 702.658 610.553 M 455.170 613.874 C 454.414 614.353, 453.982 615.966, 454.170 617.609 L 454.500 620.500 514.500 620.500 L 574.500 620.500 574.830 617.609 C 575.018 615.966, 574.586 614.353, 573.830 613.874 C 573.099 613.410, 546.400 613.031, 514.500 613.031 C 482.600 613.031, 455.901 613.410, 455.170 613.874 M 489.500 634.548 C 497.404 641.074, 509.646 644.152, 520.379 642.314 C 527.579 641.080, 538.035 636.723, 540.602 633.887 C 542.272 632.042, 541.692 632.001, 514.405 632.036 L 486.500 632.072 489.500 634.548 M 72.200 666.200 C 69.237 669.163, 72.172 673.676, 76.377 672.620 C 79.287 671.890, 80.357 669.535, 78.961 666.928 C 77.807 664.771, 74.035 664.365, 72.200 666.200 M 124.667 665.667 C 120.701 669.632, 142.609 714.334, 164.282 746.500 C 190.014 784.689, 223.520 819.155, 265 850.102 C 333.094 900.904, 414.551 930.005, 499.500 933.878 C 552.548 936.296, 603.979 928.823, 654.174 911.402 C 679.968 902.450, 697.286 893.910, 731 873.518 C 764.319 853.366, 802.832 821.592, 828.389 793.170 C 851.911 767.011, 877.070 729.976, 891.992 699.545 C 901.823 679.494, 906.550 667.700, 905.461 665.937 C 905.112 665.373, 883.042 665, 849.941 665 C 795.686 665, 794.974 665.026, 792.927 667.073 C 791.068 668.932, 791.002 669.370, 792.284 671.301 C 794.381 674.460, 799.873 675.249, 814.750 674.531 C 825.667 674.003, 828 674.134, 828 675.272 C 828 677.238, 815.234 697.546, 806.185 709.974 C 780.861 744.757, 744.272 779.277, 704.500 805.910 C 686.044 818.269, 669.048 827.505, 650.311 835.357 C 615.451 849.967, 579.620 859.153, 546.696 861.923 C 530.543 863.282, 497.811 863.312, 483.778 861.982 C 444.332 858.241, 395.618 843.905, 357.628 824.858 C 320.777 806.382, 265.704 764.408, 245.844 739.662 C 241.359 734.073, 235.790 727.250, 233.469 724.500 C 223.764 713, 201 678.499, 201 675.291 C 201 674.296, 204.310 674, 215.429 674 C 227.212 674, 230.145 673.712, 231.429 672.429 C 233.489 670.368, 233.414 668.684, 231.171 666.655 C 229.519 665.160, 224.325 665, 177.338 665 C 148.735 665, 125.033 665.300, 124.667 665.667 M 956.571 666.571 C 955.707 667.436, 955 668.529, 955 669 C 955 670.178, 957.919 673, 959.137 673 C 961.266 673, 964 670.844, 964 669.165 C 964 665.262, 959.465 663.678, 956.571 666.571 M 92.362 667.500 C 91.097 670.795, 92.757 671.770, 100.846 672.486 C 105.243 672.876, 110.226 672.890, 111.920 672.518 C 114.503 671.950, 115 671.369, 115 668.921 L 115 666 103.969 666 C 95.085 666, 92.825 666.292, 92.362 667.500 M 913.694 666.640 C 913.312 667.021, 913 668.331, 913 669.550 C 913 672.442, 915.264 672.999, 926.500 672.868 C 939.052 672.722, 941.500 672.089, 941.500 668.990 C 941.500 666.500, 941.500 666.500, 927.944 666.223 C 920.488 666.071, 914.075 666.258, 913.694 666.640 M 271.776 672.479 C 260.900 675.473, 252.487 683.355, 249.443 693.402 C 244.587 709.429, 247.692 728.625, 256.576 737.510 C 262.833 743.767, 269.768 746.301, 281.995 746.798 C 288.204 747.050, 294.238 746.754, 296.750 746.074 L 301 744.923 301 736.942 L 301 728.962 298.250 729.731 C 296.738 730.154, 291.450 730.500, 286.500 730.500 C 278.791 730.500, 277.051 730.180, 274.373 728.270 C 269.176 724.562, 267.500 719.864, 267.500 709 C 267.500 697.207, 269.414 692.788, 276.077 689.195 C 280.137 687.006, 281.341 686.850, 290.750 687.297 L 301 687.785 301 680.023 L 301 672.262 297.250 671.642 C 291.072 670.621, 276.826 671.089, 271.776 672.479 M 343.250 672.140 L 338 673.153 338 709.576 L 338 746 347 746 L 356 746 356 733 L 356 720 358.894 720 C 361.510 720, 362.594 721.253, 370.144 732.997 L 378.500 745.994 388.738 745.997 L 398.975 746 395.321 740.250 C 393.311 737.087, 389.038 730.575, 385.826 725.778 L 379.986 717.055 382.736 715.278 C 390.294 710.393, 393.501 703.240, 392.762 692.915 C 392.089 683.518, 388.880 678.689, 380.538 674.522 C 374.936 671.724, 373.791 671.532, 361.538 671.336 C 354.367 671.222, 346.137 671.583, 343.250 672.140 M 432 709 L 432 746 458.042 746 L 484.084 746 483.792 738.250 L 483.500 730.500 467.250 730.225 L 451 729.950 451 722.975 L 451 716 464.500 716 L 478 716 478 708 L 478 700 464.500 700 L 451 700 451 694 L 451 688 467 688 L 483 688 483 680 L 483 672 457.500 672 L 432 672 432 709 M 535.041 675.750 C 534.471 677.813, 529.796 694.350, 524.653 712.500 L 515.301 745.500 524.278 745.789 C 529.215 745.948, 533.423 745.910, 533.629 745.704 C 533.835 745.498, 535.011 741.431, 536.243 736.665 L 538.483 728 550.013 728 L 561.542 728 563.890 737 L 566.238 746 575.726 746 C 583.193 746, 585.106 745.718, 584.705 744.675 C 584.426 743.946, 580.530 730.333, 576.048 714.425 C 571.567 698.516, 567.003 682.462, 565.908 678.750 L 563.915 672 549.996 672 L 536.077 672 535.041 675.750 M 608 680 L 608 688 618.500 688 L 629 688 629 717 L 629 746 639 746 L 649 746 649 717 L 649 688 659.500 688 L 670 688 670 680 L 670 672 639 672 L 608 672 608 680 M 697 709 L 697 746 723.042 746 L 749.084 746 748.792 738.250 L 748.500 730.500 732.250 730.225 L 716 729.950 716 722.975 L 716 716 730.042 716 L 744.084 716 743.792 708.250 L 743.500 700.500 729.750 700.222 L 716 699.944 716 693.972 L 716 688 732.500 688 L 749 688 749 680 L 749 672 723 672 L 697 672 697 709 M 358.750 685.716 C 356 686.133, 356 686.133, 356 695.487 C 356 704.841, 356 704.841, 359.022 705.505 C 363.588 706.508, 370.037 705.054, 372.660 702.430 C 374.392 700.699, 375 698.967, 375 695.768 C 375 690.300, 372.948 687.358, 368.221 686.044 C 364.451 684.998, 363.673 684.971, 358.750 685.716 M 546.637 697.250 C 545.201 702.888, 543.743 708.513, 543.397 709.750 C 542.785 711.934, 542.979 712, 550 712 C 557.018 712, 557.215 711.933, 556.613 709.750 C 556.272 708.513, 554.783 702.888, 553.304 697.250 C 551.825 691.612, 550.308 687, 549.931 687 C 549.555 687, 548.072 691.612, 546.637 697.250 M 315.789 724.738 C 314.297 724.951, 311.710 726.403, 310.039 727.964 C 307.598 730.244, 307 731.619, 307 734.951 C 307 743.456, 311.903 747.722, 320.557 746.746 C 325.911 746.143, 328.639 743.966, 329.939 739.259 C 332.328 730.606, 325.289 723.382, 315.789 724.738 M 408.513 725.531 C 402.473 727.646, 400.181 731.821, 401.424 738.446 C 402.963 746.649, 414.532 750.071, 421.046 744.250 C 426.455 739.417, 425.953 731.107, 420 726.945 C 416.321 724.372, 412.993 723.963, 408.513 725.531 M 497.016 725.026 C 492.155 726.166, 489 730.133, 489 735.105 C 489 742.729, 493.129 747, 500.500 747 C 507.917 747, 512 742.730, 512 734.973 C 512 731.745, 511.363 730.209, 509.077 727.923 C 507.469 726.315, 505.481 725, 504.659 725 C 503.836 725, 502.564 724.822, 501.832 724.604 C 501.099 724.387, 498.932 724.576, 497.016 725.026 M 596.789 724.738 C 595.297 724.951, 592.710 726.403, 591.039 727.964 C 588.598 730.244, 588 731.619, 588 734.951 C 588 743.456, 592.903 747.722, 601.557 746.746 C 606.911 746.143, 609.639 743.966, 610.939 739.259 C 613.328 730.606, 606.289 723.382, 596.789 724.738 M 675.016 725.026 C 670.155 726.166, 667 730.133, 667 735.105 C 667 742.729, 671.129 747, 678.500 747 C 685.917 747, 690 742.730, 690 734.973 C 690 731.745, 689.363 730.209, 687.077 727.923 C 685.469 726.315, 683.481 725, 682.659 725 C 681.836 725, 680.564 724.822, 679.832 724.604 C 679.099 724.387, 676.932 724.576, 675.016 725.026 M 761.513 725.531 C 755.473 727.646, 753.181 731.821, 754.424 738.446 C 755.963 746.649, 767.532 750.071, 774.046 744.250 C 779.455 739.417, 778.953 731.107, 773 726.945 C 769.321 724.372, 765.993 723.963, 761.513 725.531 M 559.932 829.127 C 558.593 831.628, 560.047 833.062, 563.111 832.261 C 565.265 831.697, 565.560 829.960, 563.800 828.200 C 562.094 826.494, 561.231 826.700, 559.932 829.127 M 470.350 829.531 C 469.638 831.387, 471.643 833.147, 474 832.735 C 474.825 832.591, 475.500 831.579, 475.500 830.486 C 475.500 827.918, 471.270 827.133, 470.350 829.531 M 486.323 829.601 C 485.690 831.250, 487.727 833.209, 489.500 832.655 C 490.050 832.484, 490.644 831.366, 490.820 830.172 C 491.061 828.530, 490.626 828, 489.038 828 C 487.883 828, 486.661 828.720, 486.323 829.601 M 500.535 828.943 C 499.500 830.619, 500.899 832, 503.632 832 C 505.487 832, 506.059 831.541, 505.813 830.250 C 505.438 828.282, 501.541 827.316, 500.535 828.943 M 515.667 828.667 C 514.149 830.185, 515.147 832, 517.500 832 C 519.333 832, 520 831.467, 520 830 C 520 828.049, 517.159 827.175, 515.667 828.667 M 530 829.883 C 530 830.919, 530.874 831.995, 531.942 832.275 C 534.262 832.881, 535 832.292, 535 829.833 C 535 828.544, 534.258 828, 532.500 828 C 530.718 828, 530 828.541, 530 829.883 M 544.667 828.667 C 543.007 830.326, 544.179 832, 547 832 C 549.333 832, 550 831.556, 550 830 C 550 828.571, 549.333 828, 547.667 828 C 546.383 828, 545.033 828.300, 544.667 828.667 M 545.153 841.247 C 543.731 842.669, 543.663 844.674, 545.009 845.506 C 546.547 846.456, 550 845.046, 550 843.468 C 550 841.396, 546.574 839.826, 545.153 841.247 M 560.200 841.200 C 559.540 841.860, 559 842.937, 559 843.593 C 559 845.538, 562.228 846.200, 563.842 844.587 C 565.063 843.366, 565.099 842.824, 564.042 841.550 C 562.494 839.686, 561.779 839.621, 560.200 841.200 M 470.666 842.427 C 469.965 844.256, 472.513 846.401, 474.487 845.643 C 475.319 845.324, 476 844.149, 476 843.031 C 476 841.555, 475.346 841, 473.607 841 C 472.291 841, 470.968 841.642, 470.666 842.427 M 486 843.570 C 486 845.662, 486.418 846.080, 488.250 845.820 C 489.696 845.614, 490.614 844.696, 490.820 843.250 C 491.080 841.418, 490.662 841, 488.570 841 C 486.477 841, 486 841.477, 486 843.570 M 500.535 841.943 C 499.500 843.619, 500.899 845, 503.632 845 C 505.487 845, 506.059 844.541, 505.813 843.250 C 505.438 841.282, 501.541 840.316, 500.535 841.943 M 515.667 841.667 C 514.200 843.133, 515.133 845, 517.333 845 C 520.175 845, 521.035 844.254, 520.324 842.402 C 519.768 840.954, 516.842 840.492, 515.667 841.667 M 529.441 842.096 C 528.479 843.652, 531.534 846.393, 533.422 845.668 C 534.290 845.335, 535 844.149, 535 843.031 C 535 841.544, 534.346 841, 532.559 841 C 531.216 841, 529.813 841.493, 529.441 842.096" stroke="none" fill="#04233b" fill-rule="evenodd"/></svg>